<?xml version="1.0" encoding="UTF-8" standalone="no"?>
<svg
   width="300px"
   height="300px"
   viewBox="0 0 300 300"
   version="1.1"
   id="svg42"
   sodipodi:docname="banano-icon.svg"
   inkscape:version="1.2.2 (b0a8486541, 2022-12-01)"
   xmlns:inkscape="http://www.inkscape.org/namespaces/inkscape"
   xmlns:sodipodi="http://sodipodi.sourceforge.net/DTD/sodipodi-0.dtd"
   xmlns:xlink="http://www.w3.org/1999/xlink"
   xmlns="http://www.w3.org/2000/svg"
   xmlns:svg="http://www.w3.org/2000/svg">
  <sodipodi:namedview
     id="namedview44"
     pagecolor="#ffffff"
     bordercolor="#666666"
     borderopacity="1.0"
     inkscape:showpageshadow="2"
     inkscape:pageopacity="0.0"
     inkscape:pagecheckerboard="0"
     inkscape:deskcolor="#d1d1d1"
     showgrid="false"
     inkscape:zoom="0.78666667"
     inkscape:cx="150.63559"
     inkscape:cy="150"
     inkscape:window-width="1280"
     inkscape:window-height="809"
     inkscape:window-x="0"
     inkscape:window-y="32"
     inkscape:window-maximized="1"
     inkscape:current-layer="icon" />
  <!-- Generator: Sketch 52.1 (67048) - http://www.bohemiancoding.com/sketch -->
  <title
     id="title2">banano-icon</title>
  <desc
     id="desc4">Created with Sketch.</desc>
  <defs
     id="defs19">
    <radialGradient
       cx="47.652192"
       cy="32.695761"
       fx="47.652192"
       fy="32.695761"
       r="291.47823"
       id="radialGradient-1"
       gradientUnits="userSpaceOnUse"
       gradientTransform="translate(350,350)">
      <stop
         stop-color="#FFFFFF"
         stop-opacity="0.15"
         offset="0%"
         id="stop6" />
      <stop
         stop-color="#FFFFFF"
         stop-opacity="0"
         offset="100%"
         id="stop8" />
    </radialGradient>
    <path
       d="M127.311915,92.3143368 C71.5350042,99.3357531 45.8513339,50.2282589 50.406742,45.4368897 C53.4146482,42.2736165 58.0915878,42.0837393 62.1446654,41.9746609 C80.7936837,41.4696684 107.190339,63.2429265 112.543805,63.1358681 C122.912472,62.9237712 138.511048,46.4448548 148.731853,32.8605556 C153.009764,27.1783796 179.734555,18.6157261 176.77121,33.5453255 C167.162114,81.9640098 134.419486,91.4194901 127.311915,92.3143368 Z M49.6880853,0.685663156 C105.464996,-6.33575306 131.148666,42.7717411 126.591233,47.5631103 C123.583327,50.7263835 118.908412,50.9162607 114.855335,51.0253391 C96.2063165,51.5303316 69.8096611,29.7550535 64.4561957,29.8641319 C54.0875279,30.0762288 38.4889518,46.5551452 28.2661219,60.1394444 C23.9902364,65.8216204 -2.73455431,74.3842739 0.228790299,59.4566945 C9.83788587,11.0359902 42.5805144,1.58050993 49.6880853,0.685663156 Z"
       id="path-2" />
    <filter
       x="-0.088135593"
       y="-0.16774194"
       width="1.1762712"
       height="1.4"
       filterUnits="objectBoundingBox"
       id="filter-3">
      <feOffset
         dx="0"
         dy="6"
         in="SourceAlpha"
         result="shadowOffsetOuter1"
         id="feOffset12" />
      <feGaussianBlur
         stdDeviation="6.5"
         in="shadowOffsetOuter1"
         result="shadowBlurOuter1"
         id="feGaussianBlur14" />
      <feColorMatrix
         values="0 0 0 0 0   0 0 0 0 0   0 0 0 0 0  0 0 0 0.248131793 0"
         type="matrix"
         in="shadowBlurOuter1"
         id="feColorMatrix16" />
    </filter>
  </defs>
  <g
     id="Page-1"
     stroke="none"
     stroke-width="1"
     fill="none"
     fill-rule="evenodd">
    <g
       id="icon"
       transform="translate(-350.000000, -350.000000)">
      <g
         id="base"
         transform="translate(350,350)">
        <rect
           id="path-1"
           fill="#fbdd11"
           x="0"
           y="0"
           width="300"
           height="300"
           rx="150" />
        <path
           d="M 300,150 C 300,232.84271 232.84271,300 150,300 67.157287,300 0,232.84271 0,150 0,149.49942 0.00245203,148.99942 0.00734473,148.5 0.81216633,230.65185 67.657863,297 150,297 c 82.34214,0 149.18783,-66.34815 149.99266,-148.5 0.005,0.49942 0.007,0.99942 0.007,1.5 z"
           id="Combined-Shape"
           fill="#e8c900" />
        <path
           d="M 299.99266,151.5 C 299.18783,69.348146 232.34214,3 150,3 67.657863,3 0.81216633,69.348146 0.00734471,151.5 0.00245203,151.00058 0,150.50058 0,150 0,67.157287 67.157287,0 150,0 c 82.84271,0 150,67.157287 150,150 0,0.50058 -0.002,1.00058 -0.007,1.5 z"
           id="path23"
           fill="#ffef7f" />
        <rect
           id="innerring"
           fill="#2a2a2e"
           x="15"
           y="15"
           width="270"
           height="270"
           rx="135" />
      </g>
      <rect
         id="finish"
         fill="url(#radialGradient-1)"
         x="350"
         y="350"
         width="300"
         height="300"
         rx="150"
         style="fill:url(#radialGradient-1)" />
      <g
         id="logo"
         transform="translate(411.8,453.8)"
         style="fill:#ff9955">
        <g
           id="g32"
           style="fill:#ff9955">
          <use
             fill="#000000"
             fill-opacity="1"
             filter="url(#filter-3)"
             xlink:href="#path-2"
             id="use28"
             style="fill:#ff9955" />
          <use
             fill="#fbdd11"
             fill-rule="evenodd"
             xlink:href="#path-2"
             id="use30"
             style="fill:#ff9955" />
        </g>
        <path
           d="M 126.98327,46.817936 C 125.00554,34.857328 99.205987,-3.1478444 49.688085,3.0856632 42.580514,3.9805099 9.8378859,13.43599 0.2287903,61.856695 0.16735333,62.166178 0.11867716,62.465564 0.0822972,62.755089 -0.06007552,61.812906 -0.02174708,60.718754 0.2287903,59.456694 9.8378859,11.03599 42.580514,1.5805099 49.688085,0.68566316 103.31657,-6.0653007 129.12544,39.071951 126.98327,46.817936 Z m -76.968102,1.763261 c -0.24997,-1.51136 -0.119514,-2.606746 0.391574,-3.144307 3.007906,-3.163273 7.684846,-3.353151 11.737923,-3.462229 18.649019,-0.504993 45.045675,21.268266 50.399145,21.161207 10.36866,-0.212097 25.96724,-16.691013 36.18804,-30.275312 4.1892,-5.564347 29.90399,-13.890946 28.18588,-0.213933 -1.54141,-10.2037 -24.26962,-2.587869 -28.18588,2.613933 -10.2208,13.584299 -25.81938,30.063215 -36.18804,30.275312 -5.35347,0.107059 -31.750126,-21.6662 -50.399145,-21.161207 -4.053077,0.109078 -8.730017,0.298956 -11.737923,3.462229 -0.175303,0.184383 -0.305825,0.434393 -0.391574,0.744307 z"
           id="highlight"
           fill="#ffef7f"
           style="fill:#ff9955" />
        <path
           d="m 126.98327,44.417936 c 0.24999,1.511808 0.11937,2.60751 -0.39204,3.145174 -3.0079,3.163273 -7.68282,3.353151 -11.7359,3.462229 C 96.206316,51.530332 69.809661,29.755053 64.456196,29.864132 54.087528,30.076229 38.488952,46.555145 28.266122,60.139444 24.078885,65.703816 -1.6360703,74.030465 0.0822972,60.355089 1.6239025,70.556996 24.351743,62.941218 28.266122,57.739444 38.488952,44.155145 54.087528,27.676229 64.456196,27.464132 c 5.353465,-0.109079 31.75012,21.6662 50.399134,21.161207 4.05308,-0.109078 8.728,-0.298956 11.7359,-3.462229 0.17555,-0.184555 0.30622,-0.434859 0.39204,-0.745174 z m -76.968102,1.763261 c 1.978049,11.959639 27.777649,49.966798 77.296752,43.73314 7.10757,-0.894847 39.85019,-10.350327 49.45929,-58.769012 0.0615,-0.309591 0.11013,-0.60908 0.14652,-0.898702 0.14234,0.942289 0.104,2.036545 -0.14652,3.298702 C 167.16211,81.96401 134.41949,91.41949 127.31192,92.314337 73.68143,99.065552 47.872634,53.924681 50.015168,46.181197 Z"
           id="shadow"
           fill="#e8c900"
           style="fill:#ff9955" />
      </g>
    </g>
  </g>
</svg>
